<svg width="27" height="27" viewBox="0 0 27 27" fill="none" xmlns="http://www.w3.org/2000/svg">
<rect width="27" height="27" fill="#1E1E1E"/>
<g id="RESERVA - DESKTOP" clip-path="url(#clip0_7_2)">
<rect width="1920" height="3774" transform="translate(-102 -1612)" fill="white"/>
<g id="Group 48">
<g id="Group 47">
<g id="Image Carousel Ripple">
<g id="Property 1=Image 1">
<g clip-path="url(#clip1_7_2)">
<rect x="-39.3398" y="-383.34" width="395.583" height="447.68" rx="10.596" fill="white"/>
<g id="Frame 2">
<g id="arrow-right-circle">
<path id="Vector" d="M13.639 24.4177C19.7349 24.4177 24.6765 19.4761 24.6765 13.3802C24.6765 7.28442 19.7349 2.34277 13.639 2.34277C7.54321 2.34277 2.60156 7.28442 2.60156 13.3802C2.60156 19.4761 7.54321 24.4177 13.639 24.4177Z" stroke="#13510E" stroke-width="1.766" stroke-linecap="round" stroke-linejoin="round"/>
<path id="Vector_2" d="M13.6396 17.7958L18.0546 13.3808L13.6396 8.96582" stroke="#13510E" stroke-width="1.766" stroke-linecap="round" stroke-linejoin="round"/>
<path id="Vector_3" d="M9.22461 13.3809H18.0546" stroke="#13510E" stroke-width="1.766" stroke-linecap="round" stroke-linejoin="round"/>
</g>
<rect x="-10.6425" y="-10.2733" width="154.927" height="47.309" rx="10.1545" stroke="#13510E" stroke-width="0.882998"/>
</g>
</g>
</g>
<rect x="-56.5585" y="-400.559" width="430.02" height="482.117" rx="3.97349" stroke="#7B61FF" stroke-width="0.882998" stroke-dasharray="8.83 4.41"/>
</g>
</g>
</g>
</g>
<defs>
<clipPath id="clip0_7_2">
<rect width="1920" height="3774" fill="white" transform="translate(-102 -1612)"/>
</clipPath>
<clipPath id="clip1_7_2">
<rect x="-39.3398" y="-383.34" width="395.583" height="447.68" rx="10.596" fill="white"/>
</clipPath>
</defs>
</svg>
